<svg width="51" height="50" viewBox="0 0 51 50" fill="none" xmlns="http://www.w3.org/2000/svg">
<path d="M44.8379 17.8848H43.6373V12.0918C43.6373 12.0554 43.6316 12.0193 43.6268 11.9823C43.6249 11.7523 43.5516 11.5264 43.3941 11.3476L33.754 0.335132C33.751 0.332305 33.7482 0.331302 33.7463 0.328475C33.6888 0.264276 33.6219 0.210655 33.5509 0.164694C33.53 0.150376 33.5088 0.138613 33.4868 0.126484C33.4256 0.0931987 33.3604 0.0652026 33.2934 0.0450491C33.2752 0.0403071 33.2589 0.0328293 33.2408 0.0279049C33.1679 0.0107607 33.0923 0 33.0158 0H9.32358C8.24176 0 7.36285 0.879916 7.36285 1.96082V17.8842H6.16239C4.61476 17.8842 3.35986 19.1387 3.35986 20.6866V35.26C3.35986 36.8072 4.61476 38.0629 6.16239 38.0629H7.36285V48.0393C7.36285 49.1203 8.24176 50 9.32358 50H41.6765C42.7574 50 43.6372 49.1203 43.6372 48.0393V38.063H44.8378C46.385 38.063 47.6401 36.8078 47.6401 35.2606V20.6871C47.6402 19.1392 46.3851 17.8848 44.8379 17.8848ZM9.32358 1.96128H32.0354V11.993C32.0354 12.5347 32.4747 12.9734 33.0158 12.9734H41.6766V17.8851H9.32358V1.96128ZM34.8727 24.9744C34.8727 26.2792 34.4365 27.3884 33.6458 28.1393C32.6165 29.1102 31.0929 29.5449 29.312 29.5449C28.9161 29.5449 28.5599 29.5247 28.2833 29.4863V34.2538H25.2937V21.0961C26.2248 20.9362 27.5307 20.8176 29.3709 20.8176C31.2307 20.8176 32.5562 21.1748 33.4475 21.8882C34.2992 22.5598 34.8727 23.6675 34.8727 24.9744ZM8.25462 34.2539L9.10553 20.9181H13.1221L14.4285 25.37C14.8448 26.9129 15.2596 28.5754 15.5566 30.1384H15.6169C15.9927 28.595 16.4477 26.8354 16.8831 25.3509L18.3079 20.9181H22.2458L22.9775 34.2539H20.0301L19.832 29.1499C19.7717 27.5469 19.713 25.6061 19.713 23.6675H19.6541C19.2379 25.37 18.6841 27.2696 18.169 28.8335L16.5474 34.0371H14.1923L12.7675 28.871C12.3326 27.3084 11.8765 25.4089 11.5604 23.6675H11.5202C11.4415 25.4688 11.3822 27.5258 11.2835 29.1882L11.0454 34.2539H8.25462ZM41.6766 47.5083H9.32358V38.063H41.6765V47.5083H41.6766ZM40.0588 34.4717C38.3955 34.4717 36.9908 34.037 36.2388 33.5626L36.8529 31.3055C37.3868 31.5831 38.6137 32.0964 39.8411 32.0964C41.4037 32.0964 42.1954 31.3448 42.1954 30.3758C42.1954 29.1101 40.9286 28.5348 39.6026 28.5348H38.3752V26.3778H39.5437C40.5524 26.3595 41.8396 25.9834 41.8396 24.894C41.8396 24.1226 41.2058 23.5501 39.9396 23.5501C38.8907 23.5501 37.7826 24.0048 37.2483 24.3215L36.6354 22.1436C37.4072 21.6496 38.9496 21.1745 40.6131 21.1745C43.3632 21.1745 44.8874 22.6193 44.8874 24.3809C44.8874 25.745 44.1148 26.8145 42.5322 27.3682V27.4084C44.0766 27.6857 45.3235 28.8517 45.3235 30.5343C45.3223 32.8097 43.3237 34.4717 40.0588 34.4717Z" fill="#426CFF"/>
<path d="M29.5288 23.095C28.916 23.095 28.5001 23.1534 28.2832 23.2127V27.1504C28.5403 27.2088 28.8577 27.2298 29.2923 27.2298C30.895 27.2298 31.8855 26.4179 31.8855 25.0517C31.885 23.8265 31.0339 23.095 29.5288 23.095Z" fill="#426CFF"/>
</svg>
