<svg width="51" height="50" viewBox="0 0 51 50" fill="none" xmlns="http://www.w3.org/2000/svg">
<path d="M25.1297 25.63C24.8679 24.7609 24.6076 23.6748 24.3906 22.8059H24.3468C24.1302 23.6748 23.9131 24.7825 23.6738 25.63L22.8052 28.7354H26.0423L25.1297 25.63Z" fill="#426CFF"/>
<path d="M44.8379 17.8848H43.6373V12.0918C43.6373 12.0556 43.6316 12.0193 43.6268 11.9827C43.6249 11.7526 43.5516 11.5267 43.3941 11.3476L33.754 0.335315C33.751 0.332488 33.7482 0.331485 33.7463 0.328475C33.6888 0.264276 33.6219 0.210837 33.5509 0.164694C33.53 0.15065 33.5088 0.138886 33.4868 0.126575C33.4256 0.0931987 33.3604 0.065385 33.2934 0.0452315C33.2752 0.0402159 33.2589 0.0328293 33.2408 0.0280873C33.1679 0.0107607 33.0923 0 33.0158 0H9.32358C8.24176 0 7.36285 0.879916 7.36285 1.96082V17.8842H6.16239C4.61476 17.8842 3.35986 19.1387 3.35986 20.6868V35.2605C3.35986 36.8078 4.61476 38.0629 6.16239 38.0629H7.36285V48.0393C7.36285 49.1203 8.24176 50 9.32358 50H41.6765C42.7574 50 43.6372 49.1203 43.6372 48.0393V38.063H44.8378C46.385 38.063 47.6401 36.8078 47.6401 35.2606V20.6874C47.6402 19.1392 46.3851 17.8848 44.8379 17.8848ZM9.32358 1.96128H32.0354V11.9934C32.0354 12.5349 32.4747 12.9737 33.0158 12.9737H41.6766V17.8854H9.32358V1.96128ZM31.211 34.9695H27.6476L26.5187 31.2116H22.326L21.2838 34.9695H17.852L22.326 20.3291H26.67L31.211 34.9695ZM9.11876 29.2136V34.9695H5.83884V20.525C6.90305 20.3506 8.48916 20.2206 10.2483 20.2206C12.4206 20.2206 13.9417 20.5462 14.9838 21.3718C15.852 22.0664 16.3308 23.0879 16.3308 24.4346C16.3308 26.3026 15.0061 27.5842 13.746 28.0405V28.1059C14.7672 28.5186 15.3313 29.4952 15.7007 30.8428C16.1569 32.4934 16.6124 34.4048 16.8957 34.9697H13.5075C13.2681 34.5566 12.9201 33.3633 12.4864 31.5594C12.0953 29.7349 11.4658 29.2347 10.1187 29.2137H9.11876V29.2136ZM41.6766 47.5083H9.32358V38.063H41.6765V47.5083H41.6766ZM40.8359 34.9695C40.5965 34.5565 40.2489 33.3631 39.8143 31.5592C39.4242 29.7348 38.7933 29.2346 37.4477 29.2135H36.4481V34.9694H33.1679V20.525C34.2326 20.3506 35.8172 20.2206 37.5768 20.2206C39.7498 20.2206 41.2697 20.5462 42.3127 21.3718C43.1816 22.0664 43.6603 23.0879 43.6603 24.4346C43.6603 26.3026 42.3342 27.5842 41.0744 28.0405V28.1059C42.0959 28.5186 42.6608 29.4952 43.0294 30.8428C43.4862 32.4934 43.9419 34.4048 44.2248 34.9697H40.8359V34.9695Z" fill="#426CFF"/>
<path d="M13.0505 24.7173C13.0505 23.3703 12.1384 22.6971 10.6177 22.6746C9.81378 22.6746 9.358 22.7397 9.11816 22.7833V26.8228H10.4217C12.0735 26.8238 13.0505 25.9984 13.0505 24.7173Z" fill="#426CFF"/>
<path d="M37.9475 22.675C37.1428 22.675 36.6877 22.7402 36.4478 22.7838V26.8238H37.7513C39.4009 26.8238 40.3794 25.9985 40.3794 24.7173C40.3794 23.3702 39.468 22.6971 37.9475 22.675Z" fill="#426CFF"/>
</svg>
