<svg width="50" height="50" viewBox="0 0 50 50" fill="none" xmlns="http://www.w3.org/2000/svg">
<path d="M43.9792 17.8848H42.8086V12.0918C42.8086 12.0556 42.8031 12.0193 42.7984 11.9827C42.7965 11.7526 42.725 11.5267 42.5714 11.3476L33.1724 0.335315C33.1695 0.332488 33.1667 0.331485 33.1648 0.328475C33.1088 0.264276 33.0436 0.210837 32.9743 0.164694C32.9539 0.15065 32.9333 0.138886 32.9119 0.126575C32.8521 0.0931987 32.7886 0.065385 32.7233 0.0452315C32.7055 0.0402159 32.6896 0.0328293 32.672 0.0280873C32.601 0.0107607 32.5273 0 32.4527 0H9.35271C8.29794 0 7.44099 0.879916 7.44099 1.96082V17.8842H6.27055C4.76161 17.8842 3.53809 19.1387 3.53809 20.6868V35.2605C3.53809 36.8078 4.76161 38.0629 6.27055 38.0629H7.44099V48.0393C7.44099 49.1203 8.29794 50 9.35271 50H40.8968C41.9507 50 42.8085 49.1203 42.8085 48.0393V38.063H43.9791C45.4876 38.063 46.7113 36.8078 46.7113 35.2606V20.6874C46.7114 19.1392 45.4877 17.8848 43.9792 17.8848ZM9.35271 1.96128H31.4968V11.9934C31.4968 12.5349 31.9251 12.9737 32.4527 12.9737H40.8969V17.8854H9.35271V1.96128ZM29.4962 20.3941V35.0346H26.2556V20.3941H29.4962ZM13.7585 23.1309V20.3941H24.1145V22.3061L17.4648 32.2113V32.2974H24.2209V35.0346H13.1233V33.253L19.922 23.2182V23.1309H13.7585ZM40.8969 47.5083H9.35271V38.063H40.8968V47.5083H40.8969ZM41.2296 28.3231C40.1285 29.3874 38.4978 29.8645 36.5915 29.8645C36.167 29.8645 35.7869 29.8435 35.4901 29.7999V35.0345H32.2924V20.5896C33.2875 20.4151 34.685 20.2854 36.6546 20.2854C38.6461 20.2854 40.0643 20.6761 41.0181 21.4582C41.9283 22.1966 42.5425 23.4132 42.5425 24.847C42.5429 26.2806 42.0767 27.4969 41.2296 28.3231Z" fill="#426CFF"/>
<path d="M36.8252 22.7834C36.1671 22.7834 35.7222 22.8488 35.4902 22.9144V27.2367C35.7646 27.3018 36.1044 27.3238 36.5707 27.3238C38.2855 27.3238 39.345 26.4324 39.345 24.9345C39.3451 23.5875 38.4344 22.7834 36.8252 22.7834Z" fill="#426CFF"/>
</svg>
