<svg width="51" height="50" viewBox="0 0 51 50" fill="none" xmlns="http://www.w3.org/2000/svg">
<path d="M44.5879 17.885H43.3875V12.0912C43.3875 12.0551 43.3816 12.0187 43.3769 11.9821C43.375 11.7521 43.3017 11.5262 43.1442 11.3472L33.504 0.335315C33.5012 0.332488 33.4982 0.331485 33.4962 0.328475C33.4389 0.264276 33.3719 0.210837 33.301 0.164694C33.2799 0.15065 33.2589 0.138886 33.2368 0.126575C33.1755 0.0931987 33.1104 0.065385 33.0434 0.0452315C33.0252 0.0402159 33.009 0.0330117 32.9909 0.0280873C32.9179 0.0107607 32.8423 0 32.7659 0H9.07359C7.99168 0 7.11285 0.879916 7.11285 1.96082V17.8845H5.91249C4.36476 17.8845 3.10986 19.1387 3.10986 20.6868V35.2605C3.10986 36.8072 4.36476 38.0629 5.91249 38.0629H7.11285V48.0393C7.11285 49.1203 7.99168 50 9.07359 50H41.4266C42.5075 50 43.3875 49.1203 43.3875 48.0393V38.063H44.5879C46.1351 38.063 47.3902 36.8078 47.3902 35.2606V20.6874C47.3903 19.1387 46.1351 17.885 44.5879 17.885ZM9.07359 1.96082H31.7854V11.9925C31.7854 12.5345 32.2247 12.9729 32.7658 12.9729H41.4266V17.8849H9.07359V1.96082ZM32.5996 27.1772C32.5996 31.6344 29.8972 34.3362 25.9236 34.3362C21.8903 34.3362 19.5305 31.2911 19.5305 27.4194C19.5305 23.3452 22.132 20.3001 26.1453 20.3001C30.3196 20.3001 32.5996 23.4255 32.5996 27.1772ZM6.11785 34.0542V20.7041C7.24718 20.5221 8.71912 20.4212 10.2728 20.4212C12.854 20.4212 14.5275 20.8853 15.8385 21.8731C17.2502 22.922 18.138 24.5962 18.138 26.9957C18.138 29.5974 17.1904 31.3921 15.8797 32.5013C14.4477 33.6913 12.2693 34.2556 9.60697 34.2556C8.01283 34.2557 6.88396 34.1549 6.11785 34.0542ZM41.4266 47.5078H9.07359V38.063H41.4266V47.5078ZM41.5749 31.7757C42.5027 31.7757 43.5314 31.573 44.1361 31.3319L44.6005 33.7316C44.0355 34.0151 42.7651 34.3161 41.1116 34.3161C36.4127 34.3161 33.9923 31.3922 33.9923 27.5199C33.9923 22.8825 37.2996 20.3001 41.4131 20.3001C43.0063 20.3001 44.2174 20.6227 44.7623 20.9054L44.1366 23.3452C43.5118 23.0833 42.6445 22.8408 41.555 22.8408C39.1149 22.8408 37.2188 24.3133 37.2188 27.338C37.2184 30.0609 38.832 31.7757 41.5749 31.7757Z" fill="#426CFF"/>
<path d="M14.8703 27.0967C14.8904 24.2727 13.2364 22.7805 10.5952 22.7805C9.90941 22.7805 9.46476 22.8408 9.20312 22.9017V31.7959C9.46467 31.8565 9.88889 31.8565 10.2723 31.8565C13.0551 31.8762 14.8703 30.3434 14.8703 27.0967Z" fill="#426CFF"/>
<path d="M22.7773 27.3581C22.7773 30.0211 24.028 31.8963 26.0848 31.8963C28.1624 31.8963 29.352 29.9193 29.352 27.2778C29.352 24.8367 28.1825 22.7402 26.0647 22.7402C23.9883 22.7408 22.7773 24.7171 22.7773 27.3581Z" fill="#426CFF"/>
</svg>
