<svg width="49" height="50" viewBox="0 0 49 50" fill="none" xmlns="http://www.w3.org/2000/svg">
<path d="M24.8549 22.9045C24.1987 22.9045 23.7539 22.9692 23.5205 23.034V27.3572C23.7964 27.4223 24.1352 27.4443 24.6008 27.4443C26.3168 27.4443 27.3754 26.5535 27.3754 25.0547C27.3754 23.708 26.4648 22.9045 24.8549 22.9045Z" fill="#426CFF"/>
<path d="M15.0684 25.0547C15.0684 23.708 14.1586 22.9045 12.5488 22.9045C11.8928 22.9045 11.4477 22.9692 11.2144 23.034V27.3572C11.4901 27.4223 11.8295 27.4443 12.2946 27.4443C14.0104 27.4443 15.0684 26.5535 15.0684 25.0547Z" fill="#426CFF"/>
<path d="M43.2296 17.8848H42.059V12.0918C42.059 12.0556 42.0534 12.0192 42.0487 11.9826C42.0468 11.7526 41.9755 11.5267 41.8219 11.3477L32.4227 0.33533C32.4199 0.332516 32.4171 0.331517 32.4152 0.328431C32.3592 0.264252 32.2939 0.210875 32.2248 0.164669C32.2044 0.150599 32.1838 0.138798 32.1623 0.126634C32.1025 0.0931371 32.039 0.0653594 31.9737 0.0452977C31.956 0.0402142 31.9401 0.0327705 31.9224 0.0280501C31.8514 0.0108024 31.7777 0 31.703 0H8.60316C7.54833 0 6.6914 0.8799 6.6914 1.96087V17.8843H5.52106C4.0121 17.8843 2.78857 19.1387 2.78857 20.6869V35.2606C2.78857 36.8078 4.0121 38.0629 5.52106 38.0629H6.69149V48.0391C6.69149 49.12 7.54842 50 8.60325 50H40.1473C41.2012 50 42.0591 49.1201 42.0591 48.0391V38.0629H43.2297C44.7382 38.0629 45.962 36.8078 45.962 35.2606V20.6873C45.9619 19.1392 44.7381 17.8848 43.2296 17.8848ZM8.60316 1.96123H30.7471V11.9933C30.7471 12.5349 31.1756 12.9737 31.703 12.9737H40.1472V17.8854H8.60316V1.96123ZM30.5735 24.9676C30.5735 26.4015 30.1077 27.6175 29.2611 28.4428C28.1586 29.5066 26.5279 29.9852 24.6214 29.9852C24.1983 29.9852 23.8171 29.9627 23.5206 29.9201V35.1553H20.3223V20.7098C21.3179 20.5364 22.7165 20.4054 24.6859 20.4054C26.6763 20.4054 28.0956 20.7967 29.0483 21.5789C29.9593 22.3179 30.5735 23.5339 30.5735 24.9676ZM8.01574 35.1553V20.7098C9.01136 20.5364 10.4099 20.4054 12.3793 20.4054C14.37 20.4054 15.7891 20.7967 16.7417 21.5789C17.653 22.3179 18.2668 23.534 18.2668 24.9677C18.2668 26.4016 17.8012 27.6176 16.9543 28.4429C15.852 29.5071 14.2213 29.9853 12.3149 29.9853C11.8917 29.9853 11.5105 29.9628 11.2136 29.9202V35.1553H8.01574V35.1553ZM40.1473 47.5084H8.60316V38.0629H40.1472V47.5084H40.1473ZM42.5201 23.2951H38.6228V35.1553H35.3829V23.2951H31.5491V20.5148H42.5201V23.2951Z" fill="#426CFF"/>
</svg>
