<svg width="50" height="50" viewBox="0 0 50 50" fill="none" xmlns="http://www.w3.org/2000/svg">
<path d="M44.3384 17.8848H43.1377V12.0918C43.1377 12.0556 43.1321 12.0193 43.1278 11.9823C43.1259 11.7525 43.0522 11.5266 42.8947 11.3476L33.254 0.335315C33.251 0.332488 33.2482 0.331485 33.2463 0.328475C33.1888 0.264276 33.1219 0.210837 33.0509 0.164694C33.03 0.15065 33.0088 0.138886 32.9868 0.126484C32.9256 0.0931987 32.8604 0.0652026 32.7934 0.0450491C32.7752 0.0403071 32.7589 0.0328293 32.7408 0.0280873C32.6679 0.0107607 32.5923 0 32.5158 0H8.82358C7.74176 0 6.86285 0.879916 6.86285 1.96082V17.8842H5.66239C4.11476 17.8842 2.85986 19.1387 2.85986 20.6868V35.2605C2.85986 36.8072 4.11476 38.0629 5.66239 38.0629H6.86285V48.0393C6.86285 49.1203 7.74176 50 8.82358 50H41.1765C42.2574 50 43.1372 49.1203 43.1372 48.0393V38.063H44.3378C45.885 38.063 47.1401 36.8078 47.1401 35.2606V20.6874C47.1402 19.1387 45.8859 17.8848 44.3384 17.8848ZM8.82358 1.96082H31.5354V11.9925C31.5354 12.5342 31.9747 12.9729 32.5158 12.9729H41.1766V17.8847H8.82358V1.96082ZM28.687 28.6947C26.7607 28.0236 25.5037 26.9579 25.5037 25.271C25.5037 23.2923 27.1552 21.7786 29.8915 21.7786C31.1984 21.7786 32.1625 22.0534 32.85 22.3634L32.2653 24.4791C31.8011 24.256 30.9753 23.9285 29.8398 23.9285C28.7043 23.9285 28.1538 24.4449 28.1538 25.0471C28.1538 25.7871 28.8078 26.1137 30.3041 26.6814C32.351 27.4387 33.3147 28.5052 33.3147 30.1395C33.3147 32.084 31.8178 33.7356 28.6349 33.7356C27.3104 33.7356 26.003 33.3919 25.3491 33.0301L25.8819 30.8624C26.5876 31.2234 27.6718 31.5853 28.7896 31.5853C29.995 31.5853 30.6306 31.0865 30.6306 30.3292C30.6311 29.6072 30.0806 29.1934 28.687 28.6947ZM24.2497 31.3611V33.564H17.0055V21.9666H19.6388V31.3611H24.2497ZM8.59377 33.564H5.60029L8.95508 27.6955L5.72021 21.9662H8.73147L9.74599 24.0827C10.0901 24.7882 10.3484 25.3552 10.624 26.0101H10.6575C10.9335 25.2701 11.1569 24.7539 11.4486 24.0827L12.4294 21.9662H15.423L12.1539 27.6261L15.5955 33.563H12.5678L11.5177 31.4636C11.0883 30.6561 10.8128 30.0533 10.4857 29.3822H10.4515C10.2103 30.0533 9.91852 30.6561 9.55685 31.4636L8.59377 33.564ZM41.1766 47.5083H8.82358V38.063H41.1765V47.5083H41.1766ZM41.1943 33.564L40.1444 31.4646C39.7145 30.6563 39.4393 30.0543 39.1122 29.3831H39.0789C38.8376 30.0543 38.5447 30.6563 38.1827 31.4646L37.2205 33.564H34.2261L37.5809 27.6955L34.3462 21.9662H37.3574L38.3732 24.0827C38.717 24.7882 38.9744 25.3552 39.2503 26.0101H39.2847C39.5594 25.2701 39.7825 24.7539 40.0754 24.0827L41.0559 21.9662H44.0502L40.7811 27.6261L44.222 33.563H41.1943V33.564Z" fill="#426CFF"/>
</svg>
