<svg width="48" height="50" viewBox="0 0 48 50" fill="none" xmlns="http://www.w3.org/2000/svg">
<path d="M42.3709 17.8848H41.2305V12.0918C41.2305 12.0554 41.225 12.0193 41.2205 11.9823C41.2186 11.7525 41.1491 11.5264 40.9995 11.3476L31.8412 0.335315C31.8385 0.332214 31.8357 0.331302 31.8339 0.328475C31.7794 0.264002 31.7157 0.210655 31.6484 0.164694C31.6284 0.150376 31.6084 0.138613 31.5874 0.126484C31.5292 0.0931987 31.4673 0.0652026 31.4036 0.0450491C31.3864 0.0403071 31.371 0.0328293 31.3537 0.0279049C31.2844 0.0107607 31.2126 0 31.14 0H8.63233C7.60452 0 6.76964 0.879916 6.76964 1.96082V17.8842H5.62929C4.15895 17.8842 2.9668 19.1387 2.9668 20.6866V35.26C2.9668 36.8072 4.15895 38.0629 5.62929 38.0629H6.76964V48.0393C6.76964 49.1203 7.60452 50 8.63233 50H39.3677C40.3946 50 41.2305 49.1203 41.2305 48.0393V38.063H42.3709C43.8408 38.063 45.0331 36.8078 45.0331 35.2606V20.6871C45.0332 19.1392 43.8408 17.8848 42.3709 17.8848ZM8.63233 1.96128H30.2085V11.993C30.2085 12.5347 30.6259 12.9734 31.1399 12.9734H39.3677V17.8851H8.63233V1.96128ZM21.504 31.0184V29.1321L25.955 21.5901H29.3208V28.8479H30.7325V31.0193H29.3208V33.9706H26.7149V31.0193H21.504V31.0184ZM6.70414 33.97L7.48219 21.1328H11.1553L12.3497 25.4183C12.7296 26.9039 13.11 28.5041 13.3811 30.0077H13.4354C13.7792 28.5233 14.1956 26.8276 14.5937 25.3994L15.8962 21.1328H19.4969L20.1666 33.97H17.4702L17.2897 29.0566C17.2351 27.5146 17.1812 25.6472 17.1812 23.7803H17.1265C16.7471 25.4183 16.2404 27.2471 15.77 28.7512L14.2858 33.7617H12.1326L10.83 28.7895C10.4319 27.2854 10.0155 25.4567 9.72634 23.7803H9.68995C9.61744 25.5142 9.56329 27.4941 9.47302 29.0949L9.25566 33.97H6.70414ZM39.3677 47.5083H8.63233V38.063H39.3677V47.5083ZM38.4208 33.97H35.2002L31.2915 21.1328H34.3134L35.7969 26.5606C36.2134 28.0842 36.5927 29.5516 36.8828 31.151H36.9369C37.2449 29.609 37.625 28.0842 38.0411 26.6185L39.597 21.1333H42.5283L38.4208 33.97Z" fill="#426CFF"/>
<path d="M26.7149 26.1043C26.7149 25.3618 26.7514 24.5995 26.8056 23.7998H26.7331C26.3539 24.5995 26.0456 25.3225 25.6472 26.1043L24.0732 28.8095V28.8479H26.7145V26.1043H26.7149Z" fill="#426CFF"/>
</svg>
