<svg width="50" height="50" viewBox="0 0 50 50" fill="none" xmlns="http://www.w3.org/2000/svg">
<path d="M23.1099 22.7432C22.4541 22.7432 22.009 22.8085 21.7759 22.8741V27.1963C22.0518 27.2615 22.3906 27.2835 22.8559 27.2835C24.5719 27.2835 25.6312 26.3921 25.6312 24.8942C25.6312 23.5472 24.7198 22.7432 23.1099 22.7432Z" fill="#426CFF"/>
<path d="M43.9796 17.8848H42.809V12.0918C42.809 12.0556 42.8034 12.0192 42.7987 11.9826C42.7968 11.7526 42.7255 11.5267 42.5719 11.3477L33.1727 0.33533C33.1699 0.332516 33.1671 0.331517 33.1652 0.328431C33.1092 0.264252 33.0439 0.210875 32.9748 0.164669C32.9544 0.150599 32.9338 0.138798 32.9123 0.126634C32.8525 0.0931371 32.789 0.0653594 32.7237 0.0452977C32.706 0.0402142 32.6901 0.0327705 32.6724 0.0280501C32.6014 0.0108024 32.5277 0 32.453 0H9.35316C8.29833 0 7.4414 0.8799 7.4414 1.96087V17.8843H6.27106C4.7621 17.8843 3.53857 19.1387 3.53857 20.6869V35.2606C3.53857 36.8078 4.7621 38.0629 6.27106 38.0629H7.44149V48.0391C7.44149 49.12 8.29842 50 9.35325 50H40.8973C41.9512 50 42.8091 49.1201 42.8091 48.0391V38.0629H43.9797C45.4882 38.0629 46.712 36.8078 46.712 35.2606V20.6873C46.7119 19.1392 45.4881 17.8848 43.9796 17.8848ZM9.35316 1.96123H31.4971V11.9933C31.4971 12.5349 31.9256 12.9737 32.453 12.9737H40.8972V17.8854H9.35316V1.96123ZM28.8283 24.8068C28.8283 26.2402 28.3624 27.4566 27.5159 28.2829C26.4139 29.3471 24.7831 29.8243 22.8779 29.8243C22.4541 29.8243 22.0723 29.8033 21.7759 29.7597V34.9943H18.578V20.5502C19.574 20.3754 20.9714 20.2457 22.9411 20.2457C24.9317 20.2457 26.3507 20.6363 27.3049 21.4187C28.2146 22.1569 28.8283 23.3736 28.8283 24.8068ZM8.4533 34.8857L8.81406 32.2141C9.25908 32.3663 9.83012 32.4754 10.4654 32.4754C11.8218 32.4754 12.6682 31.8445 12.6682 29.564V20.3539H15.887V29.6072C15.887 33.7781 13.9381 35.2329 10.8042 35.2329C10.0636 35.2333 9.08905 35.1041 8.4533 34.8857ZM40.8973 47.5084H9.35316V38.0629H40.8972V47.5084H40.8973ZM42.808 34.3214C41.813 34.6689 39.9282 35.1466 38.0417 35.1466C35.4382 35.1466 33.5525 34.4732 32.2401 33.1701C30.9267 31.9106 30.2056 29.9991 30.2275 27.8484C30.248 22.9825 33.7 20.2022 38.3815 20.2022C40.2241 20.2022 41.6439 20.5709 42.3422 20.9188L41.6645 23.5687C40.8804 23.2211 39.9058 22.9387 38.3385 22.9387C35.6492 22.9387 33.617 24.5031 33.617 27.6745C33.617 30.6938 35.4588 32.475 38.1066 32.475C38.8477 32.475 39.441 32.3878 39.6948 32.2572V29.1945H37.4918V26.6099H42.8079V34.3214H42.808Z" fill="#426CFF"/>
</svg>
