<svg width="50" height="50" viewBox="0 0 50 50" fill="none" xmlns="http://www.w3.org/2000/svg">
<path d="M44.3378 17.8848H43.1372V12.0918C43.1372 12.0554 43.1315 12.0192 43.1267 11.9824C43.1248 11.7523 43.0516 11.5264 42.8941 11.3477L33.2539 0.335057C33.251 0.332243 33.2481 0.331245 33.2461 0.328431C33.1887 0.264252 33.1217 0.210602 33.0509 0.164669C33.0299 0.150327 33.0088 0.138616 32.9868 0.126361C32.9254 0.0931371 32.8603 0.065087 32.7934 0.0450253C32.7752 0.0402142 32.7589 0.0327705 32.7407 0.0277777C32.6679 0.0108024 32.5923 0 32.5157 0H8.82354C7.74166 0 6.86276 0.8799 6.86276 1.96087V17.8843H5.66242C4.11476 17.8843 2.85986 19.1387 2.85986 20.6866V35.2601C2.85986 36.8073 4.11476 38.0629 5.66242 38.0629H6.86285V48.0391C6.86285 49.12 7.74175 50 8.82363 50H41.1765C42.2574 50 43.1373 49.1201 43.1373 48.0391V38.0629H44.3379C45.8851 38.0629 47.1403 36.8078 47.1403 35.2606V20.6871C47.1402 19.1392 45.885 17.8848 44.3378 17.8848ZM41.1765 47.5084H8.82354V38.0629H41.1764V47.5084H41.1765ZM17.5961 32.9523C18.3566 32.9523 18.9652 32.8661 19.2257 32.7359V29.6731H16.9664V27.0876H22.4188V34.7991C21.3982 35.1466 19.4633 35.6245 17.531 35.6245C14.8589 35.6245 12.9257 34.9514 11.5785 33.6479C10.2315 32.3885 9.49329 30.4764 9.51526 28.3266C9.53632 23.4607 13.0781 20.6805 17.8785 20.6805C19.7678 20.6805 21.2225 21.0496 21.9399 21.3972L21.2448 24.0466C20.4413 23.6991 19.4417 23.4173 17.8335 23.4173C15.0762 23.4173 12.9897 24.9814 12.9897 28.152C12.9903 31.1715 14.8812 32.9523 17.5961 32.9523ZM25.0051 35.4722V20.8328H28.3279V35.4722H25.0051ZM39.7767 26.8928V29.586H34.5196V35.4722H31.1964V20.8328H40.1467V23.5471H34.5196V26.8927H39.7767V26.8928ZM41.1765 17.8848H8.82354V1.96123H31.5353V11.993C31.5353 12.5347 31.9747 12.9734 32.5157 12.9734H41.1764V17.8848H41.1765Z" fill="#426CFF"/>
</svg>
