<svg width="51" height="50" viewBox="0 0 51 50" fill="none" xmlns="http://www.w3.org/2000/svg">
<path d="M13.5714 25.1186C13.5714 23.8479 12.6899 23.0896 11.1307 23.0896C10.4962 23.0896 10.0663 23.1509 9.84131 23.2126V27.2909C10.1075 27.3523 10.4349 27.3723 10.8871 27.3723C12.5458 27.3734 13.5714 26.5322 13.5714 25.1186Z" fill="#426CFF"/>
<path d="M44.5878 17.8848H43.3872V12.0918C43.3872 12.0556 43.3815 12.0192 43.3767 11.9826C43.3748 11.7526 43.3016 11.5267 43.1441 11.3477L33.5039 0.33533C33.501 0.332516 33.4981 0.331517 33.4961 0.328431C33.4387 0.264252 33.3717 0.210875 33.3009 0.164669C33.2799 0.150599 33.2588 0.138798 33.2368 0.126634C33.1754 0.0931371 33.1103 0.0653594 33.0434 0.0452977C33.0252 0.0402142 33.0089 0.0327705 32.9907 0.0280501C32.9179 0.0108024 32.8423 0 32.7657 0H9.07354C7.99166 0 7.11276 0.8799 7.11276 1.96087V17.8843H5.91242C4.36476 17.8843 3.10986 19.1387 3.10986 20.6869V35.2606C3.10986 36.8078 4.36476 38.0629 5.91242 38.0629H7.11285V48.0391C7.11285 49.12 7.99175 50 9.07363 50H41.4265C42.5074 50 43.3873 49.1201 43.3873 48.0391V38.0629H44.5879C46.1351 38.0629 47.3903 36.8078 47.3903 35.2606V20.6873C47.3902 19.1392 46.135 17.8848 44.5878 17.8848ZM9.07354 1.96123H31.7853V11.9933C31.7853 12.5349 32.2247 12.9737 32.7657 12.9737H41.4264V17.8854H9.07354V1.96123ZM21.523 30.4883V34.6487H18.6544V20.8355H22.3022L25.1717 25.8971C25.991 27.3523 26.8115 29.0728 27.4253 30.6315H27.4865C27.2817 28.8066 27.2203 26.942 27.2203 24.8726V20.8355H30.0901V34.6487H26.8115L23.8598 29.3198C23.0384 27.8444 22.1377 26.0617 21.4599 24.4427L21.3995 24.4628C21.4833 26.2872 21.523 28.2341 21.523 30.4883ZM6.74566 34.6487V21.0203C7.70907 20.8565 9.06192 20.7335 10.9673 20.7335C12.8932 20.7335 14.2673 21.1022 15.1893 21.8403C16.0696 22.5368 16.6648 23.6842 16.6648 25.0374C16.6648 26.3897 16.2147 27.5382 15.3941 28.3165C14.3285 29.3208 12.7504 29.7717 10.906 29.7717C10.4955 29.7717 10.1259 29.7508 9.8406 29.7105V34.6497H6.74566V34.6487ZM41.4265 47.5084H9.07354V38.0629H41.4264V47.5084H41.4265ZM44.336 34.013C43.3729 34.3404 41.548 34.7923 39.7241 34.7923C37.2042 34.7923 35.3784 34.1566 34.1089 32.9273C32.8385 31.7381 32.1405 29.9344 32.1615 27.9057C32.1817 23.3152 35.523 20.6923 40.0516 20.6923C41.8348 20.6923 43.2091 21.0399 43.8841 21.3682L43.2292 23.8685C42.4695 23.5402 41.527 23.2739 40.0105 23.2739C37.4092 23.2739 35.4407 24.7496 35.4407 27.742C35.4407 30.5907 37.2243 32.271 39.7863 32.271C40.503 32.271 41.077 32.1892 41.3236 32.0661V29.1762H39.1909V26.7372H44.3361V34.013H44.336Z" fill="#426CFF"/>
</svg>
