<svg width="25" height="25" viewBox="0 0 25 25" fill="none" xmlns="http://www.w3.org/2000/svg">
<path fill-rule="evenodd" clip-rule="evenodd" d="M17.6544 0.0785278C15.3544 -0.0287639 9.65753 -0.0235556 7.35544 0.0785278C5.33253 0.173319 3.54815 0.661861 2.10961 2.1004C-0.0417528 4.25177 -0.0219075 7.0721 0.00605343 11.0458C0.00933905 11.5127 0.0127367 11.9956 0.0127367 12.4952C0.0127367 12.9628 0.0102325 13.4146 0.00781075 13.8516C-0.014952 17.9589 -0.0304198 20.75 2.10961 22.89C4.26492 25.0444 7.11634 25.0232 11.0452 24.994C11.5159 24.9905 12.0021 24.9869 12.5044 24.9869H12.5722C17.3367 24.9869 18.9916 24.9869 20.6867 24.3306C23.0023 23.4317 24.7502 21.3619 24.9211 17.6442C25.0294 15.3431 25.0231 9.64728 24.9211 7.3452C24.7148 2.95665 22.3596 0.295195 17.6544 0.0785278ZM12.6646 6.75293C9.11979 6.75293 6.25 9.62585 6.25 13.1675C6.25 16.7123 9.12292 19.5821 12.6646 19.5821C16.2094 19.5821 19.0792 16.7092 19.0792 13.1675C19.0792 9.62273 16.2063 6.75293 12.6646 6.75293ZM20.8324 6.49896C20.8324 7.32681 20.1613 7.99792 19.3334 7.99792C18.5056 7.99792 17.8345 7.32681 17.8345 6.49896C17.8345 5.67111 18.5056 5 19.3334 5C20.1613 5 20.8324 5.67111 20.8324 6.49896Z" fill="white"/>
</svg>
