<svg width="25" height="20" viewBox="0 0 25 20" fill="none" xmlns="http://www.w3.org/2000/svg">
<path d="M22.0862 4.98769C23.0872 4.27692 23.9292 3.38974 24.6154 2.36821V2.36718C23.6995 2.76821 22.7251 3.03487 21.7077 3.1641C22.7538 2.53949 23.5528 1.55795 23.9282 0.375385C22.9528 0.956923 21.8759 1.36718 20.7282 1.59692C19.802 0.610256 18.482 0 17.042 0C14.2482 0 11.999 2.26769 11.999 5.04718C11.999 5.44718 12.0328 5.8318 12.1159 6.19795C7.92102 5.99282 4.2082 3.98256 1.71385 0.918974C1.27897 1.67487 1.02256 2.53949 1.02256 3.46974C1.02256 5.21744 1.92205 6.76615 3.26462 7.66359C2.45333 7.64821 1.65846 7.41231 0.984615 7.04205V7.09744C0.984615 9.54974 2.73333 11.5867 5.02769 12.0564C4.61641 12.1692 4.16923 12.2226 3.70462 12.2226C3.38154 12.2226 3.05538 12.2041 2.74974 12.1364C3.40308 14.1344 5.25949 15.6041 7.46461 15.6523C5.74769 16.9949 3.56718 17.8041 1.20718 17.8041C0.793846 17.8041 0.396923 17.7856 0 17.7354C2.2359 19.1764 4.8841 20 7.74154 20C16.6472 20 22.4513 12.5703 22.0862 4.98769Z" fill="white"/>
</svg>
