<svg width="30" height="20" viewBox="0 0 30 20" fill="none" xmlns="http://www.w3.org/2000/svg">
<path d="M28.8705 2.84364L28.9074 3.07465C28.5506 1.86183 27.5874 0.925996 26.3634 0.58537L26.3376 0.579477C24.0359 -0.019271 14.7741 -0.0192708 14.7741 -0.0192708C14.7741 -0.0192708 5.53559 -0.0310573 3.21059 0.579477C1.96321 0.925996 0.998763 1.86183 0.648167 3.0499L0.642017 3.07465C-0.217864 7.37786 -0.224015 12.5485 0.680151 17.1558L0.642017 16.9225C0.998763 18.1353 1.96198 19.0711 3.18598 19.4117L3.21182 19.4176C5.51098 20.0176 14.7753 20.0176 14.7753 20.0176C14.7753 20.0176 24.0126 20.0176 26.3388 19.4176C27.5874 19.0711 28.5519 18.1353 28.9025 16.9472L28.9086 16.9225C29.2998 14.9211 29.5237 12.6181 29.5237 10.2655C29.5237 10.1795 29.5237 10.0923 29.5225 10.005C29.5237 9.92489 29.5237 9.82942 29.5237 9.73395C29.5237 7.38021 29.2998 5.07716 28.8705 2.84364ZM11.8192 14.3024V5.70655L19.5274 10.0109L11.8192 14.3024Z" fill="white"/>
</svg>
