<svg width="16" height="25" viewBox="0 0 16 25" fill="none" xmlns="http://www.w3.org/2000/svg">
<g clip-path="url(#clip0)">
<path d="M0.230184 13.4178C-0.408358 14.673 0.316642 15.273 1.97081 16.298C3.37706 17.1668 5.31977 17.4845 6.56768 17.6116C6.05623 18.1033 8.39998 15.8491 1.64998 22.3418C0.218725 23.7137 2.52289 25.9147 3.9531 24.572L7.82498 20.8376C9.30727 22.2637 10.7281 23.6303 11.6969 24.5772C13.1281 25.9251 15.4312 23.7428 14.0156 22.347C13.9094 22.246 8.76873 17.3147 9.08227 17.6168C10.3458 17.4897 12.2594 17.1533 13.6489 16.3033L13.6479 16.3022C15.3021 15.272 16.0271 14.673 15.3979 13.4178C15.0177 12.7053 13.9927 12.1095 12.6281 13.1397C12.6281 13.1397 10.7854 14.5512 7.81352 14.5512C4.8406 14.5512 2.99893 13.1397 2.99893 13.1397C1.63539 12.1043 0.606225 12.7053 0.230184 13.4178Z" fill="white"/>
<path d="M7.8113 12.6479C11.4342 12.6479 14.3925 9.81667 14.3925 6.33125C14.3925 2.83125 11.4342 0 7.8113 0C4.18734 0 1.229 2.83125 1.229 6.33125C1.229 9.81667 4.18734 12.6479 7.8113 12.6479ZM7.8113 3.20729C9.5915 3.20729 11.0436 4.60417 11.0436 6.33125C11.0436 8.04375 9.5915 9.44063 7.8113 9.44063C6.03109 9.44063 4.579 8.04375 4.579 6.33125C4.57796 4.60313 6.03005 3.20729 7.8113 3.20729Z" fill="white"/>
</g>
<defs>
<clipPath id="clip0">
<rect width="15.625" height="25" fill="white"/>
</clipPath>
</defs>
</svg>
