<svg width="14" height="25" viewBox="0 0 14 25" fill="none" xmlns="http://www.w3.org/2000/svg">
<path d="M12.9303 0.00520167L9.70757 0C6.08691 0 3.74708 2.41487 3.74708 6.15253V8.98926H0.506747C0.226744 8.98926 0 9.21762 0 9.49929V13.6094C0 13.8911 0.227002 14.1191 0.506747 14.1191H3.74708V24.4902C3.74708 24.7719 3.97383 25 4.25383 25H8.48155C8.76155 25 8.9883 24.7716 8.9883 24.4902V14.1191H12.777C13.057 14.1191 13.2838 13.8911 13.2838 13.6094L13.2853 9.49929C13.2853 9.36404 13.2318 9.23452 13.1369 9.13881C13.042 9.0431 12.9127 8.98926 12.7783 8.98926H8.9883V6.58453C8.9883 5.42872 9.26209 4.84197 10.7588 4.84197L12.9298 4.84119C13.2096 4.84119 13.4363 4.61284 13.4363 4.33143V0.514965C13.4363 0.233815 13.2098 0.00572184 12.9303 0.00520167Z" fill="white"/>
</svg>
