<svg width="32" height="18" viewBox="0 0 32 18" fill="none" xmlns="http://www.w3.org/2000/svg">
<path d="M26.5533 10.3248C26.036 9.69338 26.184 9.41246 26.5533 8.84806C26.56 8.84162 30.8307 3.13832 31.2707 1.20414L31.2733 1.20285C31.492 0.497994 31.2733 -0.0200195 30.216 -0.0200195H26.7173C25.8267 -0.0200195 25.416 0.424544 25.196 0.92194C25.196 0.92194 23.4147 5.04285 20.8947 7.7141C20.0813 8.48597 19.7053 8.73338 19.2613 8.73338C19.0427 8.73338 18.7027 8.48597 18.7027 7.78111V1.20285C18.7027 0.357537 18.4533 -0.0200195 17.716 -0.0200195H12.2147C11.656 -0.0200195 11.324 0.374289 11.324 0.741538C11.324 1.54304 12.584 1.72731 12.7147 3.98234V8.87512C12.7147 9.94723 12.5133 10.1444 12.0667 10.1444C10.8773 10.1444 7.99067 6.00672 6.28 1.27115C5.93467 0.352383 5.59733 -0.018731 4.7 -0.018731H1.2C0.201333 -0.018731 0 0.425833 0 0.923229C0 1.80205 1.18933 6.17166 5.53067 11.9445C8.424 15.8851 12.4987 18.0203 16.2053 18.0203C18.4333 18.0203 18.7053 17.546 18.7053 16.7304C18.7053 12.9651 18.504 12.6095 19.62 12.6095C20.1373 12.6095 21.028 12.8569 23.108 14.7575C25.4853 17.0113 25.876 18.0203 27.2067 18.0203H30.7053C31.7027 18.0203 32.208 17.546 31.9173 16.6105C31.252 14.6429 26.756 10.5954 26.5533 10.3248Z" fill="white"/>
</svg>
