<svg width="25" height="25" viewBox="0 0 25 25" fill="none" xmlns="http://www.w3.org/2000/svg">
<path fill-rule="evenodd" clip-rule="evenodd" d="M0.105208 12.3875C0.110417 1.46461 13.3656 -4.15101 21.375 3.59169L21.3594 3.63232C23.7083 5.9719 25 9.08544 25 12.3938C24.9958 21.8198 14.8333 27.7261 6.59896 23.2782L0 24.999L1.76667 18.5802C0.677083 16.7 0.105208 14.5709 0.105208 12.3875ZM18.2271 14.9814L18.2365 14.9033C18.2699 14.9183 18.3022 14.9327 18.3331 14.9464C18.5912 15.0613 18.7614 15.1371 18.8302 15.2626C18.9084 15.4033 18.9084 16.0126 18.6427 16.747C18.3834 17.4814 17.1406 18.1376 16.5427 18.2324C16.0063 18.3095 15.3281 18.3428 14.5844 18.1064C11.8302 17.1606 10.324 16.4793 7.4969 12.7793C6.05835 10.7522 5.6344 8.84597 7.31565 6.99805C7.7021 6.59597 8.14065 6.58764 8.74065 6.63972C8.75957 6.63972 8.77913 6.63898 8.79923 6.63821C8.98383 6.63119 9.2152 6.62239 9.44065 7.17097C9.55483 7.43862 9.73851 7.88332 9.91538 8.31151C10.1419 8.85986 10.3572 9.38115 10.4011 9.46889C10.4781 9.62409 10.5313 9.79597 10.4271 10.0147C10.1821 10.4784 9.92688 10.76 9.73649 10.97C9.47521 11.2583 9.33597 11.4119 9.51252 11.7168C9.69586 12.0293 10.3167 13.0449 11.2417 13.8731C12.2356 14.7623 13.1003 15.1372 13.5391 15.3274C13.6245 15.3644 13.6939 15.3945 13.7448 15.4199C14.0542 15.5606 14.2354 15.5449 14.4177 15.3418C14.5979 15.1356 15.1959 14.4387 15.4011 14.1314C15.6815 13.7107 15.9114 13.8255 17.8857 14.811C17.9941 14.8652 18.1078 14.9219 18.2271 14.9814Z" fill="white"/>
</svg>
