<svg width="25" height="25" viewBox="0 0 25 25" fill="none" xmlns="http://www.w3.org/2000/svg">
<path d="M24.2802 15.1531C26.0906 7.01769 18.9635 -0.372934 10.5938 1.04582C6.05 -1.77398 0 1.41248 0 6.81873C0 8.07603 0.346875 9.25311 0.95 10.2677C-0.732292 18.4219 6.45312 25.7062 14.8156 24.1906C20.7271 27.3167 27.2594 21.0823 24.2802 15.1531ZM16.324 20.0594C14.1281 20.9625 10.5146 20.9677 8.32813 19.8229C5.21042 18.1604 4.65625 14.4177 7.34583 14.4177C9.37292 14.4177 8.73125 16.7812 10.7781 17.7448C11.7177 18.1791 13.7375 18.2239 14.9115 17.4323C16.0708 16.6562 15.9646 15.4354 15.3344 14.8521C13.6646 13.3104 8.88646 13.9229 6.70208 11.2239C5.75313 10.0531 5.57396 7.98748 6.74063 6.48957C8.77396 3.8729 14.7406 3.71352 17.3063 5.68957C19.675 7.5229 19.0354 9.95623 17.124 9.95623C14.825 9.95623 16.0333 6.9479 12.3219 6.9479C9.63125 6.9479 8.57292 8.86144 10.4677 9.79269C13.0365 11.0687 19.5823 10.6427 19.5823 15.6292C19.5771 17.7042 18.3052 19.251 16.324 20.0594Z" fill="white"/>
</svg>
