<svg width="23" height="25" viewBox="0 0 23 25" fill="none" xmlns="http://www.w3.org/2000/svg">
<path fill-rule="evenodd" clip-rule="evenodd" d="M22.7035 14.472C23.4493 8.19384 22.3452 4.2303 20.3535 2.43759L20.3545 2.43655C17.14 -0.624913 6.2837 -1.07804 2.43787 2.57404C0.710784 4.3605 0.102451 6.98238 0.0357842 10.2282C-0.0308825 13.4751 -0.110049 19.5574 5.55766 21.2074H5.56287L5.55766 23.7272C5.55766 23.7272 5.51912 24.748 6.1712 24.9532C6.87355 25.1808 7.21379 24.7738 9.18832 22.4116C9.31056 22.2654 9.43907 22.1116 9.57432 21.9501C13.4535 22.2865 16.4327 21.5157 16.7712 21.4032C16.8411 21.3798 16.9402 21.3538 17.0631 21.3215L17.0631 21.3214L17.0632 21.3214C18.3166 20.9921 22.0508 20.011 22.7035 14.472ZM11.315 4.47607C10.9139 4.47607 10.9139 5.10107 11.315 5.10628C14.4264 5.13024 16.9889 7.29899 17.0171 11.2771C17.0171 11.6969 17.6316 11.6917 17.6264 11.2719H17.6254C17.5921 6.98545 14.7941 4.50003 11.315 4.47607ZM16.0171 10.6324C16.0119 11.0522 15.3984 11.0324 15.4078 10.6178C15.4557 8.54802 14.2046 6.92718 11.8296 6.74697C11.4296 6.71781 11.4713 6.0876 11.8723 6.11677C14.6109 6.32197 16.0682 8.26885 16.0171 10.6324ZM14.7514 13.3063C14.2368 13.0084 13.7129 13.1938 13.4962 13.4865L13.0431 14.073C12.8129 14.3709 12.3827 14.3313 12.3827 14.3313C9.24311 13.5011 8.40353 10.2157 8.40353 10.2157C8.40353 10.2157 8.36498 9.7709 8.65248 9.53236L9.21915 9.06361C9.50248 8.83861 9.68165 8.29694 9.39311 7.76465C8.81189 6.71453 8.37458 6.1832 8.08163 5.82726L8.08162 5.82725C7.98606 5.71114 7.90585 5.61369 7.84103 5.52298C7.56394 5.17611 7.14728 5.09798 6.71394 5.33236H6.70457C5.80353 5.85944 4.81707 6.8459 5.1327 7.86153C5.22608 8.04721 5.33302 8.30333 5.46246 8.61333L5.46247 8.61333C6.07951 10.0911 7.20776 12.7931 9.81498 14.9251C11.2973 16.1449 13.6431 17.3949 14.6389 17.6834L14.6483 17.698C15.6296 18.0251 16.5837 17.0001 17.0931 16.0719V16.0646C17.3191 15.6157 17.2441 15.1907 16.9139 14.9126C16.3285 14.3417 15.4452 13.7115 14.7514 13.3063ZM13.84 10.0968C13.7879 9.02286 13.3025 8.49994 12.3014 8.44161C11.8962 8.41765 11.9337 7.78744 12.3348 7.8114C13.6514 7.88431 14.3827 8.66557 14.4494 10.0677C14.4681 10.4874 13.8587 10.5166 13.84 10.0968Z" fill="white"/>
</svg>
