<svg xmlns="http://www.w3.org/2000/svg" viewBox="0 0 333 333"><defs><style>.cls-3{fill:#fff}</style></defs><g id="Слой_2" data-name="Слой 2"><g id="Слой_1-2" data-name="Слой 1"><g id="Эллипс_1" data-name="Эллипс 1" style="isolation:isolate"><path d="M166.5 39a127.35 127.35 0 11-90.2 37.3A127 127 0 01166.5 39m0-39A166.5 166.5 0 10333 166.5 166.44 166.44 0 00166.5 0z" fill="#6d16e8" id="Эллипс_1-2" data-name="Эллипс 1"/></g><g id="te"><path class="cls-3" d="M142.5 186.5v25c-2.2.3-5.3.5-9.3.8s-7.9.4-11.5.4c-9.6 0-16.9-.8-22.2-2.4s-8.9-4.1-11-7.6-3.2-8.5-3.2-14.9v-30.6H70.8v-18.9h14.5v-19.6h34.3v19.6h23v18.9h-23v23.9c0 2.3.7 3.8 2.2 4.6s4.1 1.2 7.8 1.2a118.72 118.72 0 0012.9-.4zM263.7 182.3h-79.9c.6 4.7 2.7 8.2 6.3 10.4s8.9 3.4 16.2 3.4c6.5 0 11.1-.7 13.9-2.2s4.6-3.1 5.4-4.9H263c-.7 7.8-5.2 14-13.3 18.7s-22.6 7-43.5 7c-20.3 0-35.1-3.4-44.4-10.1S148 188 148 175s4.6-22.9 13.9-29.6 24-10.1 44.1-10.1 34.7 3.4 44 10.1 14 16.6 14 29.6c0 2.1-.1 4.6-.3 7.3zm-72.5-25.8a13 13 0 00-6.8 8.4h43.3a13.35 13.35 0 00-6.8-8.4c-3.5-1.8-8.4-2.7-14.8-2.7s-11.5.9-14.9 2.7z"/></g></g></g></svg>