<svg width="68" height="68" viewBox="0 0 68 68" fill="none" xmlns="http://www.w3.org/2000/svg">
<g clip-path="url(#clip0)">
<path d="M67.1691 63.1637L47.8318 43.8264C51.5775 39.1997 53.8328 33.3205 53.8328 26.9173C53.8328 12.0764 41.7572 0.000854492 26.9163 0.000854492C12.0755 0.000854492 0 12.0763 0 26.9172C0 41.758 12.0756 53.8336 26.9164 53.8336C33.3197 53.8336 39.1988 51.5784 43.8256 47.8327L63.1629 67.17C63.7154 67.7225 64.4407 68.0002 65.1661 68.0002C65.8915 68.0002 66.6168 67.7225 67.1693 67.17C68.277 66.0622 68.277 64.2715 67.1691 63.1637ZM26.9164 48.167C15.1979 48.167 5.66666 38.6358 5.66666 26.9172C5.66666 15.1986 15.1979 5.66738 26.9164 5.66738C38.635 5.66738 48.1662 15.1986 48.1662 26.9172C48.1662 38.6358 38.6349 48.167 26.9164 48.167Z" fill="white"/>
</g>
<defs>
<clipPath id="clip0">
<rect width="68" height="68" fill="white"/>
</clipPath>
</defs>
</svg>
