<svg xmlns="http://www.w3.org/2000/svg" xmlns:xlink="http://www.w3.org/1999/xlink"><defs><clipPath id="clip0"><path fill="#fff" d="M0 0h15.625v25H0z"/></clipPath></defs><symbol id="arrow-right" viewBox="0 0 512 512"><path d="M508.875 248.458l-160-160c-4.167-4.167-10.917-4.167-15.083 0-4.167 4.167-4.167 10.917 0 15.083l141.792 141.792H10.667C4.771 245.333 0 250.104 0 256s4.771 10.667 10.667 10.667h464.917L333.792 408.458c-4.167 4.167-4.167 10.917 0 15.083a10.634 10.634 0 007.542 3.125c2.729 0 5.458-1.042 7.542-3.125l160-160c4.166-4.166 4.166-10.916-.001-15.083z"/></symbol><symbol id="attach" viewBox="-96 0 512 512"><path d="M160 512C71.766 512 0 440.234 0 352V128c0-11.797 9.559-21.332 21.332-21.332 11.777 0 21.336 9.535 21.336 21.332v224c0 64.684 52.629 117.332 117.332 117.332S277.332 416.684 277.332 352V117.332c0-41.172-33.492-74.664-74.664-74.664-41.176 0-74.668 33.492-74.668 74.664v213.336c0 17.64 14.355 32 32 32s32-14.36 32-32V128c0-11.797 9.559-21.332 21.332-21.332 11.777 0 21.336 9.535 21.336 21.332v202.668c0 41.172-33.496 74.664-74.668 74.664s-74.668-33.492-74.668-74.664V117.332C85.332 52.652 137.961 0 202.668 0 267.371 0 320 52.652 320 117.332V352c0 88.234-71.766 160-160 160zm0 0"/></symbol><symbol id="chain" viewBox="0 0 513.241 513.241"><path d="M469.693 42.448C442.014 15.328 405.313.637 366.301 1.01c-38.994.398-75.405 15.861-102.524 43.54l-79.823 81.47a145.403 145.403 0 00-21.409 27.914c-19.134 8.7-24.618 12.468-41.278 29.471l-79.822 81.469C14.325 292.553-.39 329.271.008 368.266c.398 38.995 15.861 75.405 43.54 102.524 27.314 26.762 63.43 41.445 101.85 41.445.513 0 1.028-.003 1.542-.008 38.994-.398 75.405-15.861 102.524-43.54l79.823-81.47a145.392 145.392 0 0021.288-27.71c19.119-8.303 24.438-12.364 41.4-29.676l79.822-81.469c27.12-27.679 41.835-64.397 41.437-103.392-.398-38.992-15.861-75.402-43.541-102.522zM186.058 331.937c10.87 10.65 22.479 19.096 35.102 25.54l-44.363 45.278c-8.843 9.026-20.736 14.068-33.489 14.198-12.72.162-24.747-4.667-33.772-13.511-9.025-8.843-14.067-20.736-14.198-33.489-.13-12.753 4.668-24.747 13.551-33.813l46.556-47.877c7.214 15.895 17.416 30.744 30.613 43.674zm41.977 115.757c-21.511 21.955-50.42 34.22-81.402 34.537-30.957.309-60.135-11.356-82.091-32.868-21.955-21.511-34.22-50.42-34.537-81.402-.316-30.982 11.356-60.136 32.868-82.091l79.822-81.469c.685-.699 1.333-1.358 1.965-1.999a146.81 146.81 0 00.452 53.452L87.42 315.186c-14.451 14.749-22.293 34.308-22.081 55.074s8.452 40.16 23.201 54.611c14.556 14.262 33.792 22.086 54.254 22.085.272 0 .548-.001.82-.004 20.766-.212 40.161-8.452 54.612-23.201l85.085-86.841c44.257-47.199 17.896-115.107-38.4-131.342 2.883-5.638 20.231-22.029 24.744-26.916 79.228 33.343 92.326 132.792 38.203 187.572zm13.584-211.362c16.476 6.198 31.395 21.217 33.379 40.182-18.731-1.958-35.587-21.889-36.951-41.616 2.06.733 3.257 1.283 3.572 1.434zm85.565-55.029c-10.34-10.13-22.299-18.695-35.276-25.363l44.537-45.456c8.843-9.025 20.736-14.067 33.489-14.198 12.728-.131 24.747 4.667 33.772 13.511 9.025 8.843 14.067 20.736 14.198 33.489.13 12.752-4.668 24.747-13.551 33.812l-46.556 47.876c-7.215-15.892-17.417-30.741-30.613-43.671zm123.184 46.067l-79.822 81.469c-.685.699-1.333 1.359-1.966 2.002a146.793 146.793 0 00-.452-53.457l57.694-59.33c14.451-14.75 22.293-34.309 22.081-55.074-.212-20.766-8.452-40.16-23.201-54.611-14.749-14.452-34.297-22.282-55.074-22.081-20.766.212-40.161 8.452-54.612 23.201l-85.085 86.841c-43.632 44.397-18.457 119.548 39.404 129.643-3.265 7.039-20.503 22.905-25.863 28.732-13.415-5.348-25.155-13.162-36.418-24.198-21.955-21.511-34.22-50.42-34.537-81.402-.204-19.989 4.589-39.213 13.789-56.238.138-.249.279-.497.403-.753a115.136 115.136 0 0118.675-25.099l79.823-81.47c21.511-21.955 50.42-34.22 81.402-34.537 30.981-.295 60.136 11.356 82.091 32.868 21.955 21.511 34.22 50.42 34.537 81.402.315 30.983-11.358 60.137-32.869 82.092z"/></symbol><symbol id="file-format-doc" viewBox="0 0 51 50"><path d="M44.588 17.885h-1.2v-5.794c0-.036-.006-.072-.011-.109a.962.962 0 00-.233-.635L33.504.335l-.008-.007a.963.963 0 00-.26-.201 1.022 1.022 0 00-.193-.082l-.052-.017A.976.976 0 0032.766 0H9.074C7.992 0 7.113.88 7.113 1.96v15.924h-1.2a2.802 2.802 0 00-2.803 2.803V35.26a2.803 2.803 0 002.802 2.803h1.2v9.976c0 1.081.88 1.961 1.962 1.961h32.353c1.08 0 1.96-.88 1.96-1.96v-9.977h1.2a2.803 2.803 0 002.803-2.802V20.687a2.802 2.802 0 00-2.802-2.802zM9.074 1.961h22.711v10.031c0 .542.44.98.98.98h8.662v4.913H9.074V1.96zM32.6 27.177c0 4.457-2.703 7.16-6.676 7.16-4.034 0-6.393-3.046-6.393-6.918 0-4.074 2.601-7.119 6.614-7.119 4.175 0 6.455 3.125 6.455 6.877zM6.118 34.054v-13.35c1.13-.182 2.601-.283 4.155-.283 2.581 0 4.255.464 5.566 1.452 1.411 1.049 2.299 2.723 2.299 5.123 0 2.601-.948 4.396-2.258 5.505-1.432 1.19-3.61 1.755-6.273 1.755-1.594 0-2.723-.101-3.49-.202zm35.309 13.454H9.074v-9.445h32.353v9.445zm.148-15.732c.928 0 1.956-.203 2.561-.444l.464 2.4c-.565.283-1.835.584-3.488.584-4.7 0-7.12-2.924-7.12-6.796 0-4.637 3.308-7.22 7.421-7.22 1.593 0 2.804.323 3.35.605l-.626 2.44a6.64 6.64 0 00-2.582-.504c-2.44 0-4.336 1.472-4.336 4.497 0 2.723 1.613 4.438 4.356 4.438z" fill="#426CFF"/><path d="M14.87 27.097c.02-2.824-1.634-4.317-4.275-4.317-.686 0-1.13.06-1.392.122v8.894c.262.06.686.06 1.07.06 2.782.02 4.597-1.513 4.597-4.76zm7.907.261c0 2.663 1.251 4.538 3.308 4.538 2.077 0 3.267-1.977 3.267-4.618 0-2.441-1.17-4.538-3.287-4.538-2.077 0-3.288 1.977-3.288 4.618z" fill="#426CFF"/></symbol><symbol id="file-format-gif" viewBox="0 0 50 50"><path d="M44.338 17.885h-1.2v-5.793c0-.037-.006-.073-.011-.11a.96.96 0 00-.233-.634L33.254.335l-.008-.007a.962.962 0 00-.195-.163c-.021-.015-.042-.026-.064-.039a1.031 1.031 0 00-.194-.081l-.052-.017A.993.993 0 0032.516 0H8.824C7.742 0 6.863.88 6.863 1.96v15.924h-1.2a2.802 2.802 0 00-2.803 2.803V35.26a2.803 2.803 0 002.802 2.803h1.2v9.976c0 1.081.88 1.961 1.962 1.961h32.352c1.081 0 1.961-.88 1.961-1.96v-9.977h1.2a2.803 2.803 0 002.803-2.802V20.687a2.803 2.803 0 00-2.802-2.802zm-3.162 29.623H8.825v-9.445h32.352v9.445zm-23.58-14.556c.76 0 1.37-.086 1.63-.216v-3.063h-2.26v-2.585h5.453v7.711c-1.02.348-2.956.825-4.888.825-2.672 0-4.605-.673-5.952-1.976-1.348-1.26-2.086-3.172-2.064-5.321.021-4.866 3.563-7.647 8.363-7.647 1.89 0 3.345.37 4.062.717l-.695 2.65c-.804-.348-1.803-.63-3.412-.63-2.757 0-4.843 1.564-4.843 4.735 0 3.02 1.891 4.8 4.606 4.8zm7.41 2.52v-14.64h3.322v14.64h-3.323zm14.77-8.58v2.694H34.52v5.886h-3.324v-14.64h8.95v2.715H34.52v3.346h5.257zm1.4-9.007H8.825V1.96h22.711v10.032c0 .542.44.98.98.98h8.661v4.912z" fill="#426CFF"/></symbol><symbol id="file-format-jpg" viewBox="0 0 50 50"><path d="M23.11 22.743c-.656 0-1.101.066-1.334.131v4.322c.276.066.615.087 1.08.087 1.716 0 2.775-.89 2.775-2.389 0-1.347-.911-2.15-2.521-2.15z" fill="#426CFF"/><path d="M43.98 17.885h-1.171v-5.793c0-.036-.006-.073-.01-.11a.977.977 0 00-.227-.634L33.172.335c-.002-.002-.005-.003-.007-.007a.952.952 0 00-.253-.201.972.972 0 00-.188-.082l-.052-.017A.931.931 0 0032.453 0h-23.1C8.298 0 7.441.88 7.441 1.96v15.924h-1.17c-1.509 0-2.732 1.255-2.732 2.803V35.26c0 1.547 1.223 2.802 2.732 2.802h1.17v9.976c0 1.081.857 1.961 1.912 1.961h31.544c1.054 0 1.912-.88 1.912-1.96v-9.977h1.17c1.51 0 2.733-1.255 2.733-2.802V20.687c0-1.548-1.224-2.802-2.732-2.802zM9.353 1.96h22.144v10.032c0 .542.429.98.956.98h8.444v4.912H9.353V1.961zm19.475 22.846c0 1.433-.466 2.65-1.312 3.476-1.102 1.064-2.733 1.541-4.638 1.541a7.92 7.92 0 01-1.102-.064v5.234h-3.198V20.55c.996-.175 2.393-.304 4.363-.304 1.99 0 3.41.39 4.364 1.173.91.738 1.523 1.955 1.523 3.388zM8.453 34.886l.361-2.672a5.18 5.18 0 001.651.261c1.357 0 2.203-.63 2.203-2.911v-9.21h3.219v9.253c0 4.171-1.949 5.626-5.083 5.626-.74 0-1.715-.129-2.35-.347zm32.444 12.622H9.353v-9.445h31.544v9.445zm1.911-13.187c-.995.348-2.88.826-4.766.826-2.604 0-4.49-.674-5.802-1.977-1.313-1.26-2.034-3.17-2.013-5.322.021-4.865 3.473-7.646 8.155-7.646 1.842 0 3.262.369 3.96.717l-.678 2.65c-.784-.348-1.758-.63-3.325-.63-2.69 0-4.722 1.564-4.722 4.735 0 3.02 1.842 4.801 4.49 4.801.74 0 1.334-.087 1.588-.218v-3.062h-2.203V26.61h5.316v7.711z" fill="#426CFF"/></symbol><symbol id="file-format-m4v" viewBox="0 0 48 50"><path d="M42.37 17.885h-1.14v-5.793c0-.037-.005-.073-.01-.11a.993.993 0 00-.22-.634L31.84.335l-.007-.007a.917.917 0 00-.247-.202.95.95 0 00-.183-.081c-.018-.005-.033-.012-.05-.017A.892.892 0 0031.14 0H8.632C7.605 0 6.77.88 6.77 1.96v15.924H5.63c-1.471 0-2.663 1.255-2.663 2.803V35.26c0 1.547 1.192 2.803 2.662 2.803h1.14v9.976C6.77 49.12 7.606 50 8.633 50h30.736c1.027 0 1.862-.88 1.862-1.96v-9.977h1.14c1.47 0 2.663-1.255 2.663-2.802V20.687c0-1.548-1.192-2.802-2.662-2.802zM8.633 1.96H30.21v10.032c0 .542.417.98.93.98h8.229v4.912H8.632V1.961zm12.872 29.057v-1.886l4.451-7.542h3.366v7.258h1.412v2.171H29.32v2.952h-2.606v-2.952h-5.211zm-14.8 2.952l.778-12.837h3.673l1.195 4.285c.38 1.486.76 3.086 1.031 4.59h.054c.344-1.485.76-3.18 1.159-4.609l1.302-4.266h3.6l.67 12.837H17.47l-.18-4.913c-.055-1.542-.109-3.41-.109-5.277h-.055a71.933 71.933 0 01-1.356 4.971l-1.484 5.01h-2.153l-1.303-4.97a61.131 61.131 0 01-1.104-5.009H9.69c-.073 1.734-.127 3.714-.217 5.315l-.217 4.875H6.704zm32.664 13.538H8.632v-9.445h30.736v9.445zM38.42 33.97H35.2l-3.91-12.837h3.022l1.484 5.428c.416 1.523.796 2.99 1.086 4.59h.054a58.955 58.955 0 011.104-4.532l1.556-5.486h2.931L38.421 33.97z" fill="#426CFF"/><path d="M26.715 26.104c0-.742.036-1.505.09-2.304h-.072c-.38.8-.687 1.523-1.086 2.304l-1.574 2.706v.038h2.642v-2.744z" fill="#426CFF"/></symbol><symbol id="file-format-mp3" viewBox="0 0 51 50"><path d="M44.838 17.885h-1.2v-5.793c0-.037-.006-.073-.011-.11a.961.961 0 00-.233-.634L33.754.335l-.008-.007a.96.96 0 00-.26-.202 1.025 1.025 0 00-.193-.081l-.052-.017A.985.985 0 0033.016 0H9.324C8.242 0 7.363.88 7.363 1.96v15.924h-1.2a2.802 2.802 0 00-2.803 2.803V35.26a2.803 2.803 0 002.802 2.803h1.2v9.976c0 1.081.88 1.961 1.962 1.961h32.352c1.081 0 1.961-.88 1.961-1.96v-9.977h1.2a2.803 2.803 0 002.803-2.802V20.687a2.802 2.802 0 00-2.802-2.802zM9.324 1.96h22.711v10.032c0 .542.44.98.98.98h8.662v4.912H9.324V1.961zm25.549 23.013c0 1.305-.436 2.414-1.227 3.165-1.03.971-2.553 1.406-4.334 1.406-.396 0-.752-.02-1.029-.059v4.768h-2.99V21.096c.932-.16 2.238-.278 4.078-.278 1.86 0 3.185.357 4.076 1.07.852.672 1.426 1.78 1.426 3.086zm-26.618 9.28l.85-13.336h4.017l1.306 4.452c.417 1.543.832 3.205 1.129 4.768h.06c.376-1.543.83-3.303 1.266-4.787l1.425-4.433h3.938l.732 13.336H20.03l-.198-5.104a148.05 148.05 0 01-.119-5.482h-.059a72.236 72.236 0 01-1.485 5.166l-1.622 5.203h-2.355l-1.425-5.166a60.92 60.92 0 01-1.207-5.203h-.04c-.079 1.8-.138 3.858-.236 5.52l-.239 5.066h-2.79zm33.422 13.254H9.324v-9.445h32.352v9.445zm-1.618-13.036c-1.663 0-3.068-.435-3.82-.91l.614-2.256c.534.277 1.76.79 2.988.79 1.563 0 2.354-.751 2.354-1.72 0-1.266-1.266-1.841-2.592-1.841h-1.228v-2.157h1.169c1.008-.018 2.296-.395 2.296-1.484 0-.771-.634-1.344-1.9-1.344-1.05 0-2.157.455-2.692.771l-.613-2.177c.772-.494 2.315-.97 3.978-.97 2.75 0 4.274 1.445 4.274 3.207 0 1.364-.772 2.433-2.355 2.987v.04c1.545.278 2.792 1.444 2.792 3.126-.002 2.276-2 3.938-5.265 3.938z" fill="#426CFF"/><path d="M29.529 23.095c-.613 0-1.029.058-1.246.118v3.937c.257.059.575.08 1.01.08 1.602 0 2.593-.812 2.593-2.178-.001-1.226-.852-1.957-2.357-1.957z" fill="#426CFF"/></symbol><symbol id="file-format-png" viewBox="0 0 51 50"><path d="M13.571 25.119c0-1.271-.881-2.03-2.44-2.03-.635 0-1.065.062-1.29.124v4.078c.267.061.594.081 1.046.081 1.659.001 2.684-.84 2.684-2.253z" fill="#426CFF"/><path d="M44.588 17.885h-1.2v-5.793c0-.036-.006-.073-.011-.11a.962.962 0 00-.233-.634L33.504.335c-.003-.002-.006-.003-.008-.007a.971.971 0 00-.26-.201 1.013 1.013 0 00-.193-.082l-.052-.017A.978.978 0 0032.766 0H9.074C7.992 0 7.113.88 7.113 1.96v15.924h-1.2a2.802 2.802 0 00-2.803 2.803V35.26a2.803 2.803 0 002.802 2.802h1.2v9.976c0 1.081.88 1.961 1.962 1.961h32.352c1.081 0 1.961-.88 1.961-1.96v-9.977h1.2a2.803 2.803 0 002.803-2.802V20.687a2.803 2.803 0 00-2.802-2.802zM9.074 1.96h22.711v10.032c0 .542.44.98.98.98h8.661v4.912H9.074V1.961zm12.449 28.527v4.16h-2.869V20.836h3.648l2.87 5.062a39.882 39.882 0 012.253 4.735h.061c-.204-1.825-.266-3.69-.266-5.76v-4.037h2.87V34.65h-3.279l-2.951-5.33c-.822-1.475-1.722-3.257-2.4-4.876l-.06.02c.083 1.824.123 3.771.123 6.025zm-14.777 4.16V21.02c.963-.163 2.316-.287 4.221-.287 1.926 0 3.3.37 4.222 1.107.88.697 1.476 1.844 1.476 3.197s-.45 2.501-1.27 3.28c-1.066 1.004-2.645 1.455-4.489 1.455-.41 0-.78-.021-1.065-.061v4.939H6.746v-.001zm34.68 12.86H9.075v-9.445h32.352v9.445zm2.91-13.495c-.963.327-2.788.78-4.612.78-2.52 0-4.346-.636-5.615-1.866-1.27-1.189-1.968-2.993-1.948-5.021.02-4.59 3.362-7.214 7.89-7.214 1.784 0 3.158.348 3.833.676l-.655 2.5c-.76-.328-1.702-.594-3.218-.594-2.602 0-4.57 1.476-4.57 4.468 0 2.849 1.783 4.529 4.345 4.529.717 0 1.291-.082 1.538-.205v-2.89H39.19v-2.439h5.145v7.276z" fill="#426CFF"/></symbol><symbol id="file-format-ppt" viewBox="0 0 49 50"><path d="M24.855 22.904c-.656 0-1.101.065-1.335.13v4.323c.276.065.615.087 1.08.087 1.717 0 2.775-.89 2.775-2.39 0-1.346-.91-2.15-2.52-2.15zm-9.787 2.151c0-1.347-.91-2.15-2.52-2.15-.655 0-1.1.064-1.334.129v4.323c.276.065.615.087 1.08.087 1.716 0 2.774-.89 2.774-2.39z" fill="#426CFF"/><path d="M43.23 17.885h-1.171v-5.793c0-.036-.006-.073-.01-.11a.977.977 0 00-.227-.634L32.422.335c-.002-.002-.005-.003-.007-.007a.952.952 0 00-.253-.201.972.972 0 00-.188-.082l-.052-.017A.931.931 0 0031.703 0h-23.1C7.548 0 6.691.88 6.691 1.96v15.924h-1.17c-1.509 0-2.732 1.255-2.732 2.803V35.26c0 1.547 1.223 2.802 2.732 2.802h1.17v9.976c0 1.081.857 1.961 1.912 1.961h31.544c1.054 0 1.912-.88 1.912-1.96v-9.977h1.17c1.51 0 2.733-1.255 2.733-2.802V20.687c0-1.548-1.224-2.802-2.732-2.802zM8.603 1.96h22.144v10.032c0 .542.429.98.956.98h8.444v4.912H8.603V1.961zm21.97 23.007c0 1.433-.465 2.65-1.312 3.475-1.102 1.064-2.733 1.542-4.64 1.542a7.98 7.98 0 01-1.1-.065v5.235h-3.199V20.71c.996-.174 2.395-.305 4.364-.305 1.99 0 3.41.392 4.362 1.174.911.739 1.526 1.955 1.526 3.389zM8.017 35.155V20.71c.995-.174 2.394-.305 4.363-.305 1.991 0 3.41.392 4.363 1.174.911.739 1.525 1.955 1.525 3.389 0 1.434-.466 2.65-1.313 3.475-1.102 1.064-2.733 1.542-4.64 1.542a8.07 8.07 0 01-1.1-.065v5.235H8.016zm32.131 12.353H8.603v-9.445h31.544v9.445zm2.373-24.213h-3.897v11.86h-3.24v-11.86H31.55v-2.78h10.97v2.78z" fill="#426CFF"/></symbol><symbol id="file-format-rar" viewBox="0 0 51 50"><path d="M25.13 25.63c-.262-.87-.522-1.955-.74-2.824h-.043c-.217.869-.434 1.976-.673 2.824l-.869 3.105h3.237l-.912-3.105z" fill="#426CFF"/><path d="M44.838 17.885h-1.2v-5.793c0-.036-.006-.073-.011-.11a.963.963 0 00-.233-.634L33.754.335l-.008-.007a.967.967 0 00-.195-.163 1.02 1.02 0 00-.258-.12l-.052-.017A.975.975 0 0033.016 0H9.324C8.242 0 7.363.88 7.363 1.96v15.924h-1.2a2.802 2.802 0 00-2.803 2.803V35.26a2.803 2.803 0 002.802 2.803h1.2v9.976c0 1.081.88 1.961 1.962 1.961h32.352c1.081 0 1.961-.88 1.961-1.96v-9.977h1.2a2.803 2.803 0 002.803-2.802V20.687a2.802 2.802 0 00-2.802-2.802zM9.324 1.96h22.711v10.032c0 .542.44.98.98.98h8.662v4.912H9.324V1.961zM31.21 34.97h-3.563l-1.13-3.757h-4.192l-1.042 3.757h-3.432l4.474-14.64h4.344l4.541 14.64zM9.119 29.214v5.755h-3.28V20.525c1.064-.174 2.65-.304 4.41-.304 2.172 0 3.693.325 4.735 1.15.868.695 1.347 1.717 1.347 3.064 0 1.868-1.325 3.15-2.585 3.606v.065c1.021.413 1.585 1.39 1.955 2.737.456 1.65.911 3.562 1.195 4.127h-3.389c-.239-.413-.587-1.607-1.02-3.41-.392-1.825-1.021-2.325-2.368-2.346h-1zm32.558 18.294H9.324v-9.445h32.352v9.445zm-.841-12.539c-.24-.413-.587-1.606-1.022-3.41-.39-1.824-1.02-2.324-2.366-2.346h-1v5.756h-3.28V20.525c1.065-.174 2.65-.304 4.409-.304 2.173 0 3.693.325 4.736 1.15.869.695 1.347 1.717 1.347 3.064 0 1.868-1.326 3.15-2.586 3.606v.065c1.022.413 1.587 1.39 1.955 2.737.457 1.65.913 3.562 1.196 4.127h-3.39z" fill="#426CFF"/><path d="M13.05 24.717c0-1.347-.912-2.02-2.432-2.042-.804 0-1.26.065-1.5.108v4.04h1.304c1.651 0 2.628-.825 2.628-2.106zm24.897-2.042c-.804 0-1.26.065-1.5.109v4.04h1.304c1.65 0 2.628-.826 2.628-2.107 0-1.347-.911-2.02-2.431-2.042z" fill="#426CFF"/></symbol><symbol id="file-format-xlsx" viewBox="0 0 50 50"><path d="M44.338 17.885h-1.2v-5.793c0-.036-.006-.073-.01-.11a.962.962 0 00-.233-.634L33.254.335l-.008-.007a.967.967 0 00-.195-.163c-.021-.014-.042-.026-.064-.039a1.025 1.025 0 00-.194-.081l-.052-.017A.975.975 0 0032.516 0H8.824C7.742 0 6.863.88 6.863 1.96v15.924h-1.2a2.802 2.802 0 00-2.803 2.803V35.26a2.803 2.803 0 002.802 2.803h1.2v9.976c0 1.081.88 1.961 1.962 1.961h32.352c1.081 0 1.961-.88 1.961-1.96v-9.977h1.2a2.803 2.803 0 002.803-2.802V20.687a2.801 2.801 0 00-2.802-2.802zM8.824 1.96h22.711v10.031c0 .542.44.98.98.98h8.662v4.913H8.824V1.96zm19.863 26.734c-1.926-.671-3.183-1.737-3.183-3.424 0-1.979 1.651-3.492 4.387-3.492 1.307 0 2.272.274 2.959.584l-.585 2.116a5.517 5.517 0 00-2.425-.55c-1.136 0-1.686.516-1.686 1.118 0 .74.654 1.067 2.15 1.634 2.047.758 3.01 1.824 3.01 3.459 0 1.944-1.496 3.596-4.68 3.596-1.324 0-2.631-.344-3.285-.706l.533-2.168c.706.361 1.79.723 2.908.723 1.205 0 1.84-.498 1.84-1.256.001-.722-.55-1.136-1.943-1.634zM24.25 31.36v2.203h-7.244V21.967h2.633v9.394h4.61zM8.594 33.564H5.6l3.355-5.869-3.235-5.729h3.011l1.015 2.117c.344.705.602 1.272.878 1.927h.034c.276-.74.499-1.256.79-1.927l.981-2.117h2.994l-3.27 5.66 3.442 5.937h-3.027l-1.05-2.1c-.43-.807-.705-1.41-1.032-2.08h-.035c-.24.67-.532 1.273-.894 2.08l-.963 2.101zm32.583 13.944H8.824v-9.445h32.352v9.445zm.017-13.944l-1.05-2.1c-.43-.808-.705-1.41-1.032-2.08h-.033c-.241.67-.534 1.272-.896 2.08l-.962 2.1h-2.995l3.355-5.869-3.235-5.729h3.011l1.016 2.117c.344.705.601 1.272.877 1.927h.035c.274-.74.498-1.256.79-1.927l.98-2.117h2.995l-3.269 5.66 3.441 5.937h-3.028v.001z" fill="#426CFF"/></symbol><symbol id="file-format-zip" viewBox="0 0 50 50"><path d="M43.98 17.885h-1.171v-5.793c0-.036-.006-.073-.01-.11a.978.978 0 00-.228-.634L33.172.335l-.007-.007a.945.945 0 00-.19-.163c-.021-.014-.042-.026-.063-.038a.985.985 0 00-.189-.082l-.051-.017a.927.927 0 00-.22-.028h-23.1c-1.053 0-1.91.88-1.91 1.96v15.924h-1.17c-1.51 0-2.733 1.255-2.733 2.803V35.26c0 1.548 1.224 2.803 2.733 2.803h1.17v9.976c0 1.081.857 1.961 1.912 1.961h31.544c1.054 0 1.912-.88 1.912-1.96v-9.977h1.17c1.509 0 2.732-1.255 2.732-2.802V20.687c0-1.548-1.223-2.802-2.732-2.802zM9.352 1.96h22.144v10.032c0 .542.428.98.956.98h8.444v4.912H9.353V1.961zm20.143 18.433v14.64h-3.24v-14.64h3.24zM13.76 23.131v-2.737h10.355v1.912l-6.65 9.905v.086h6.757v2.738H13.123v-1.782l6.799-10.035v-.087h-6.164zm27.138 24.377H9.353v-9.445h31.544v9.445zm.333-19.185c-1.101 1.064-2.732 1.541-4.638 1.541-.425 0-.805-.02-1.102-.064v5.235h-3.198V20.59c.995-.175 2.393-.305 4.363-.305 1.991 0 3.41.391 4.363 1.173.91.739 1.524 1.955 1.524 3.389 0 1.434-.465 2.65-1.312 3.476z" fill="#426CFF"/><path d="M36.825 22.783c-.658 0-1.103.066-1.335.131v4.323c.275.065.614.087 1.08.087 1.715 0 2.775-.892 2.775-2.39 0-1.347-.91-2.15-2.52-2.15z" fill="#426CFF"/></symbol><symbol id="pause" viewBox="0 0 493.528 493.528"><path d="M178.064 0L166.04.248c-14.876 0-27.236 12.112-27.236 26.992v439.664c0 14.876 13.396 26.624 28.272 26.624h.084l10.976-.072c14.892 0 26.22-11.92 26.22-26.808V26.996C204.352 12.116 193.028 0 178.064 0zm150.52 0l-12.092.248c-14.88 0-27.3 12.112-27.3 26.992v439.664c0 14.876 13.708 26.624 28.58 26.624h.084l10.816-.072c14.88 0 26.052-11.92 26.052-26.808V26.996C354.72 12.116 343.548 0 328.584 0z"/></symbol><symbol id="play" viewBox="0 0 494.148 494.148"><path d="M405.284 201.188L130.804 13.28C118.128 4.596 105.356 0 94.74 0 74.216 0 61.52 16.472 61.52 44.044v406.124c0 27.54 12.68 43.98 33.156 43.98 10.632 0 23.2-4.6 35.904-13.308l274.608-187.904c17.66-12.104 27.44-28.392 27.44-45.884.004-17.48-9.664-33.764-27.344-45.864z"/></symbol><symbol id="soc-facebook" viewBox="0 0 14 25"><path d="M12.93.005L9.708 0c-3.621 0-5.96 2.415-5.96 6.153v2.836H.506A.508.508 0 000 9.5v4.11c0 .282.227.51.507.51h3.24v10.37c0 .282.227.51.507.51h4.228c.28 0 .506-.228.506-.51V14.12h3.789c.28 0 .507-.229.507-.51l.001-4.11a.512.512 0 00-.507-.51h-3.79V6.584c0-1.156.274-1.743 1.77-1.743h2.172c.28 0 .506-.23.506-.51V.514a.508.508 0 00-.506-.51z" fill="#fff"/></symbol><symbol id="soc-instagram" viewBox="0 0 25 25"><path fill-rule="evenodd" clip-rule="evenodd" d="M17.654.079c-2.3-.108-7.996-.103-10.299 0C5.333.173 3.548.662 2.11 2.1-.042 4.252-.022 7.072.006 11.046c.003.467.007.95.007 1.45 0 .467-.003.919-.005 1.356-.023 4.107-.038 6.898 2.102 9.038 2.155 2.154 5.006 2.133 8.935 2.104.47-.003.957-.007 1.46-.007h.067c4.765 0 6.42 0 8.115-.656 2.315-.9 4.063-2.97 4.234-6.687.108-2.3.102-7.997 0-10.299C24.715 2.957 22.36.295 17.654.08zm-4.99 6.674a6.414 6.414 0 00-6.414 6.415 6.414 6.414 0 006.415 6.414 6.414 6.414 0 006.414-6.415 6.414 6.414 0 00-6.414-6.414zm8.168-.254a1.499 1.499 0 11-2.998 0 1.499 1.499 0 012.998 0z" fill="#fff"/></symbol><symbol id="soc-odnoklassniki" viewBox="0 0 16 25"><g clip-path="url(#clip0)" fill="#fff"><path d="M.23 13.418c-.638 1.255.087 1.855 1.74 2.88 1.407.869 3.35 1.187 4.598 1.314-.512.491 1.832-1.763-4.918 4.73-1.431 1.372.873 3.573 2.303 2.23l3.872-3.734c1.482 1.426 2.903 2.792 3.872 3.74 1.431 1.347 3.734-.835 2.319-2.231-.107-.101-5.247-5.032-4.934-4.73 1.264-.127 3.177-.464 4.567-1.314h-.001c1.654-1.031 2.38-1.63 1.75-2.885-.38-.713-1.405-1.308-2.77-.278 0 0-1.843 1.411-4.814 1.411-2.973 0-4.815-1.411-4.815-1.411-1.364-1.036-2.393-.435-2.769.278z"/><path d="M7.811 12.648c3.623 0 6.582-2.831 6.582-6.317C14.393 2.831 11.434 0 7.81 0 4.187 0 1.23 2.831 1.23 6.331c0 3.486 2.958 6.317 6.582 6.317zm0-9.44c1.78 0 3.233 1.396 3.233 3.123 0 1.713-1.453 3.11-3.233 3.11S4.58 8.044 4.58 6.33c-.002-1.727 1.45-3.123 3.231-3.123z"/></g></symbol><symbol id="soc-skype" viewBox="0 0 25 25"><path d="M24.28 15.153C26.09 7.018 18.963-.373 10.594 1.046 6.05-1.774 0 1.412 0 6.819c0 1.257.347 2.434.95 3.449-1.682 8.154 5.503 15.438 13.866 13.923 5.911 3.126 12.443-3.109 9.464-9.038zm-7.956 4.906c-2.196.903-5.81.909-7.996-.236-3.118-1.663-3.672-5.405-.982-5.405 2.027 0 1.385 2.363 3.432 3.327.94.434 2.96.479 4.133-.313 1.16-.776 1.054-1.997.423-2.58-1.67-1.542-6.448-.93-8.632-3.628-.949-1.17-1.128-3.237.039-4.734 2.033-2.617 8-2.776 10.565-.8 2.369 1.833 1.73 4.266-.182 4.266-2.299 0-1.09-3.008-4.802-3.008-2.69 0-3.75 1.913-1.854 2.845 2.569 1.276 9.114.85 9.114 5.836-.005 2.075-1.277 3.622-3.258 4.43z" fill="#fff"/></symbol><symbol id="soc-telegram" viewBox="0 0 24 20"><path d="M9.417 13.186l-.397 5.593c.568 0 .814-.245 1.11-.538l2.662-2.55 5.518 4.048c1.012.565 1.725.268 1.998-.932L23.93 1.808h.001c.321-1.5-.54-2.085-1.527-1.718L1.114 8.254C-.339 8.82-.316 9.63.867 9.998l5.443 1.696L18.953 3.77c.595-.394 1.136-.176.691.219L9.417 13.186z" fill="#fff"/></symbol><symbol id="soc-tweeter" viewBox="0 0 25 20"><path d="M22.086 4.988a10.075 10.075 0 002.53-2.62 10.54 10.54 0 01-2.908.796 5.02 5.02 0 002.22-2.789c-.975.582-2.052.992-3.2 1.222a5.045 5.045 0 00-8.73 3.45c.001.4.035.785.118 1.15C7.92 5.994 4.208 3.984 1.714.92a5.089 5.089 0 00-.691 2.55c0 1.748.9 3.297 2.242 4.195a4.988 4.988 0 01-2.28-.622v.055a5.07 5.07 0 004.043 4.96 5.019 5.019 0 01-1.323.166c-.323 0-.65-.019-.955-.087.653 1.998 2.51 3.468 4.715 3.516a10.144 10.144 0 01-6.258 2.152A9.41 9.41 0 010 17.736 14.211 14.211 0 007.742 20c8.905 0 14.71-7.43 14.344-15.012z" fill="#fff"/></symbol><symbol id="soc-viber" viewBox="0 0 23 25"><path fill-rule="evenodd" clip-rule="evenodd" d="M22.703 14.472c.746-6.278-.358-10.242-2.35-12.034l.002-.001C17.14-.625 6.284-1.078 2.438 2.574.71 4.361.102 6.982.036 10.228c-.067 3.247-.146 9.33 5.522 10.98h.005l-.005 2.52s-.039 1.02.613 1.225c.703.228 1.043-.18 3.017-2.541l.386-.462c3.88.337 6.859-.434 7.197-.547.07-.023.17-.05.292-.081 1.254-.33 4.988-1.311 5.64-6.85zM11.315 4.476c-.401 0-.401.625 0 .63 3.111.024 5.674 2.193 5.702 6.171 0 .42.615.415.61-.005h-.002c-.033-4.287-2.83-6.772-6.31-6.796zm4.702 6.156c-.005.42-.619.4-.61-.014.049-2.07-1.202-3.69-3.577-3.871-.4-.03-.359-.66.042-.63 2.739.205 4.196 2.152 4.145 4.515zm-1.266 2.674c-.514-.298-1.038-.112-1.255.18l-.453.587c-.23.298-.66.258-.66.258-3.14-.83-3.98-4.115-3.98-4.115s-.038-.445.25-.684l.566-.468c.283-.225.463-.767.174-1.3-.581-1.05-1.018-1.58-1.311-1.937a5.695 5.695 0 01-.241-.304c-.277-.347-.694-.425-1.127-.19h-.01c-.9.526-1.887 1.513-1.571 2.529.093.185.2.441.33.751.617 1.478 1.745 4.18 4.352 6.312 1.482 1.22 3.828 2.47 4.824 2.758l.01.015c.98.327 1.935-.698 2.444-1.626v-.007c.226-.45.151-.874-.18-1.152-.585-.571-1.468-1.202-2.162-1.607zm-.911-3.21c-.052-1.073-.537-1.596-1.539-1.654-.405-.024-.367-.655.034-.63 1.316.072 2.048.854 2.114 2.256.02.42-.59.449-.609.029z" fill="#fff"/></symbol><symbol id="soc-vk" viewBox="0 0 32 18"><path d="M26.553 10.325c-.517-.632-.369-.913 0-1.477.007-.006 4.278-5.71 4.718-7.644l.002-.001c.219-.705 0-1.223-1.057-1.223h-3.499c-.89 0-1.301.445-1.521.942 0 0-1.781 4.12-4.301 6.792-.814.772-1.19 1.02-1.634 1.02-.218 0-.558-.248-.558-.953V1.203c0-.845-.25-1.223-.987-1.223h-5.501c-.559 0-.891.394-.891.762 0 .801 1.26.985 1.39 3.24v4.893c0 1.072-.2 1.27-.647 1.27-1.19 0-4.076-4.138-5.787-8.874-.345-.919-.683-1.29-1.58-1.29H1.2c-.999 0-1.2.445-1.2.942 0 .879 1.19 5.249 5.53 11.021 2.894 3.941 6.969 6.076 10.675 6.076 2.228 0 2.5-.474 2.5-1.29 0-3.765-.201-4.12.915-4.12.517 0 1.408.247 3.488 2.148 2.377 2.253 2.768 3.262 4.099 3.262h3.498c.998 0 1.503-.474 1.212-1.41-.665-1.967-5.161-6.015-5.364-6.285z" fill="#fff"/></symbol><symbol id="soc-whatsapp" viewBox="0 0 25 25"><path fill-rule="evenodd" clip-rule="evenodd" d="M.105 12.387C.11 1.465 13.365-4.15 21.375 3.592l-.016.04A12.286 12.286 0 0125 12.394c-.004 9.426-10.167 15.332-18.401 10.884L0 25l1.767-6.419a12.329 12.329 0 01-1.662-6.192zm18.122 2.594l.01-.078.096.043c.258.115.428.191.497.317.078.14.078.75-.187 1.484-.26.734-1.502 1.39-2.1 1.485-.537.078-1.215.11-1.959-.126-2.754-.945-4.26-1.627-7.087-5.327C6.058 10.752 5.634 8.846 7.316 7c.386-.403.825-.411 1.425-.36h.058c.185-.008.416-.017.642.532.114.268.298.712.474 1.14.227.549.442 1.07.486 1.158.077.155.13.327.026.546-.245.463-.5.745-.69.955-.262.288-.401.442-.224.747.183.312.804 1.328 1.729 2.156a7.998 7.998 0 002.297 1.454 5.5 5.5 0 01.206.093c.31.14.49.125.673-.078.18-.206.778-.903.983-1.21.28-.421.51-.306 2.485.679l.341.17z" fill="#fff"/></symbol><symbol id="soc-youtube" viewBox="0 0 30 20"><path d="M28.87 2.844l.037.23A3.664 3.664 0 0026.363.586L26.338.58c-2.302-.598-11.564-.598-11.564-.598S5.536-.031 3.211.579C1.963.926.999 1.862.648 3.05l-.006.026c-.86 4.303-.866 9.474.038 14.08l-.038-.233a3.664 3.664 0 002.544 2.49l.026.006c2.299.6 11.563.6 11.563.6s9.238 0 11.564-.6c1.248-.347 2.213-1.283 2.564-2.47l.006-.026c.39-2 .615-4.304.615-6.657 0-.085 0-.173-.002-.26.002-.08.002-.176.002-.271 0-2.354-.224-4.657-.654-6.89zM11.82 14.302V5.707l7.707 4.304-7.708 4.291z" fill="#fff"/></symbol><symbol id="sound-off" viewBox="0 0 512 512"><path d="M457.941 256l47.029-47.029c9.372-9.373 9.372-24.568 0-33.941-9.373-9.373-24.568-9.373-33.941 0L424 222.059l-47.029-47.029c-9.373-9.373-24.568-9.373-33.941 0-9.372 9.373-9.372 24.568 0 33.941L390.059 256l-47.029 47.029c-9.372 9.373-9.372 24.568 0 33.941 4.686 4.687 10.827 7.03 16.97 7.03s12.284-2.343 16.971-7.029L424 289.941l47.029 47.029c4.687 4.687 10.828 7.03 16.971 7.03s12.284-2.343 16.971-7.029c9.372-9.373 9.372-24.568 0-33.941zM99 160H44c-24.301 0-44 19.699-44 44v104c0 24.301 19.699 44 44 44h55a5 5 0 005-5V165a5 5 0 00-5-5zM280 56h-24a23.999 23.999 0 00-14.578 4.935l-103.459 79.116a5 5 0 00-1.963 3.972v223.955c0 1.557.726 3.026 1.963 3.972l103.459 79.115a24 24 0 0014.579 4.936H280c13.255 0 24-10.745 24-24V80c0-13.255-10.745-24-24-24z"/></symbol><symbol id="sound-on" viewBox="0 0 512 512"><path d="M357.934 366.94a23.91 23.91 0 01-16.3-6.391c-9.726-9.005-10.31-24.19-1.304-33.916C358.173 307.364 368 282.279 368 256s-9.827-51.364-27.67-70.634c-9.006-9.726-8.422-24.911 1.304-33.916 9.726-9.007 24.91-8.421 33.916 1.303C401.634 180.923 416 217.591 416 256s-14.366 75.077-40.45 103.247c-4.73 5.107-11.164 7.693-17.616 7.693z"/><path d="M422.19 438.59a23.924 23.924 0 01-16.994-7.053c-9.36-9.385-9.339-24.581.046-33.94C443.133 359.809 464 309.522 464 256s-20.867-103.809-58.758-141.597c-9.385-9.359-9.406-24.556-.046-33.94 9.359-9.387 24.555-9.406 33.941-.047C486.124 127.275 512 189.632 512 256s-25.876 128.725-72.863 175.584a23.926 23.926 0 01-16.947 7.006zM99 160H44c-24.301 0-44 19.699-44 44v104c0 24.301 19.699 44 44 44h55a5 5 0 005-5V165a5 5 0 00-5-5zM280 56h-24a23.999 23.999 0 00-14.578 4.935l-103.459 79.116a5 5 0 00-1.963 3.972v223.955c0 1.557.726 3.026 1.963 3.972l103.459 79.115a24 24 0 0014.579 4.936H280c13.255 0 24-10.745 24-24V80c0-13.255-10.745-24-24-24z"/></symbol></svg>